<svg id="visual" viewBox="0 0 900 600" width="900" height="600" xmlns="http://www.w3.org/2000/svg" xmlns:xlink="http://www.w3.org/1999/xlink" version="1.1"><path d="M0 232L21.5 230.8C43 229.7 86 227.3 128.8 216C171.7 204.7 214.3 184.3 257.2 178C300 171.7 343 179.3 385.8 180.8C428.7 182.3 471.3 177.7 514.2 172.3C557 167 600 161 642.8 158.8C685.7 156.7 728.3 158.3 771.2 168.3C814 178.3 857 196.7 878.5 205.8L900 215L900 0L878.5 0C857 0 814 0 771.2 0C728.3 0 685.7 0 642.8 0C600 0 557 0 514.2 0C471.3 0 428.7 0 385.8 0C343 0 300 0 257.2 0C214.3 0 171.7 0 128.8 0C86 0 43 0 21.5 0L0 0Z" fill="#e4b4c0"></path><path d="M0 137L21.5 135.5C43 134 86 131 128.8 140.3C171.7 149.7 214.3 171.3 257.2 171.8C300 172.3 343 151.7 385.8 147.7C428.7 143.7 471.3 156.3 514.2 162.2C557 168 600 167 642.8 160.7C685.7 154.3 728.3 142.7 771.2 147C814 151.3 857 171.7 878.5 181.8L900 192L900 0L878.5 0C857 0 814 0 771.2 0C728.3 0 685.7 0 642.8 0C600 0 557 0 514.2 0C471.3 0 428.7 0 385.8 0C343 0 300 0 257.2 0C214.3 0 171.7 0 128.8 0C86 0 43 0 21.5 0L0 0Z" fill="#d39eaa"></path><path d="M0 89L21.5 100.5C43 112 86 135 128.8 136.2C171.7 137.3 214.3 116.7 257.2 107.7C300 98.7 343 101.3 385.8 105.2C428.7 109 471.3 114 514.2 114.8C557 115.7 600 112.3 642.8 118.3C685.7 124.3 728.3 139.7 771.2 140.5C814 141.3 857 127.7 878.5 120.8L900 114L900 0L878.5 0C857 0 814 0 771.2 0C728.3 0 685.7 0 642.8 0C600 0 557 0 514.2 0C471.3 0 428.7 0 385.8 0C343 0 300 0 257.2 0C214.3 0 171.7 0 128.8 0C86 0 43 0 21.5 0L0 0Z" fill="#c38895"></path><path d="M0 114L21.5 109C43 104 86 94 128.8 84.7C171.7 75.3 214.3 66.7 257.2 62.5C300 58.3 343 58.7 385.8 64.7C428.7 70.7 471.3 82.3 514.2 91C557 99.7 600 105.3 642.8 109.3C685.7 113.3 728.3 115.7 771.2 114.3C814 113 857 108 878.5 105.5L900 103L900 0L878.5 0C857 0 814 0 771.2 0C728.3 0 685.7 0 642.8 0C600 0 557 0 514.2 0C471.3 0 428.7 0 385.8 0C343 0 300 0 257.2 0C214.3 0 171.7 0 128.8 0C86 0 43 0 21.5 0L0 0Z" fill="#b37280"></path><path d="M0 68L21.5 61.5C43 55 86 42 128.8 34.8C171.7 27.7 214.3 26.3 257.2 27.8C300 29.3 343 33.7 385.8 34.3C428.7 35 471.3 32 514.2 36.8C557 41.7 600 54.3 642.8 58.7C685.7 63 728.3 59 771.2 59.5C814 60 857 65 878.5 67.5L900 70L900 0L878.5 0C857 0 814 0 771.2 0C728.3 0 685.7 0 642.8 0C600 0 557 0 514.2 0C471.3 0 428.7 0 385.8 0C343 0 300 0 257.2 0C214.3 0 171.7 0 128.8 0C86 0 43 0 21.5 0L0 0Z" fill="#a25d6c"></path></svg>